<svg xmlns="http://www.w3.org/2000/svg" xmlns:xlink="http://www.w3.org/1999/xlink" width="22" height="17" viewBox="0 0 22 17"><defs><path id="zvgpa" d="M1030.736 206.221v-.01c0 .387-.291 1.484-.65 1.484h-1.277c-.36 0-.65-1.096-.65-1.483v.01h-1.5c-.36 0-.65-.314-.651-.7v-1.107c0-.387.291-.7.65-.7h1.5v.024c0-.387.292-1.578.651-1.578h1.276c.36 0 .65 1.191.65 1.578v-.003h16.605c.359 0 .65.314.65.7v1.086c0 .386-.291.7-.65.7zm15.104 5.52v-.01c0 .387-.291 1.484-.65 1.484h-1.277c-.359 0-.65-1.096-.65-1.483v.01h-16.605c-.359 0-.65-.314-.65-.7v-1.107c0-.387.291-.7.65-.7h16.605v.055c0-.387.291-1.609.65-1.609h1.277c.359 0 .65 1.191.65 1.578v-.003h1.5c.359 0 .65.314.65.7v1.085c0 .387-.291.7-.65.7zm-13.475 5.49v-.01c0 .386-.29 1.514-.65 1.514h-1.276c-.357 0-.646-1.11-.65-1.505h-3.13c-.36 0-.65-.313-.651-.7v-1.107c0-.386.291-.7.65-.7h3.13v.02c.002-.39.293-1.542.65-1.542h1.277c.36 0 .65 1.16.65 1.546v-.002h14.975c.359 0 .65.313.65.7v1.085c0 .387-.291.7-.65.7zm0-2.484z"/></defs><g><g transform="translate(-1026 -202)"><use fill="#99a1b3" xlink:href="#zvgpa"/><use fill="#99a1b3" xlink:href="#zvgpa"/></g></g></svg>