<svg xmlns="http://www.w3.org/2000/svg" xmlns:xlink="http://www.w3.org/1999/xlink" width="20" height="21" viewBox="0 0 20 21"><defs><path id="3xnxa" d="M578.132 201.689c2.886 0 5.127 2.221 5.127 4.962 0 2.74-2.24 4.962-5.127 4.962-2.886 0-5.187-2.222-5.187-4.962 0-2.74 2.3-4.962 5.187-4.962zm6.055 9.919a7.67 7.67 0 0 0 1.83-5.007c0-4.22-3.425-7.642-7.87-7.642-4.446 0-7.989 3.422-7.989 7.642 0 4.22 3.543 7.766 7.989 7.766a8.009 8.009 0 0 0 3.087-.61l.127-.098 5.862 5.998a.884.884 0 0 0 1.25 0l1.251-1.25a.884.884 0 0 0 0-1.25l-5.652-5.462z"/></defs><g><g transform="translate(-570 -199)"><use fill="#99a1b3" xlink:href="#3xnxa"/><use fill="#99a1b3" xlink:href="#3xnxa"/></g></g></svg>