<svg xmlns="http://www.w3.org/2000/svg" xmlns:xlink="http://www.w3.org/1999/xlink" width="21" height="21">
  <defs>
    <path id="a" d="M1061.648 20.81c2.886 0 5.127 2.221 5.127 4.962 0 2.74-2.24 4.962-5.127 4.962-2.886 0-5.187-2.222-5.187-4.962 0-2.741 2.3-4.963 5.187-4.963zm6.055 9.918a7.67 7.67 0 0 0 1.83-5.006c0-4.22-3.425-7.642-7.87-7.642s-7.989 3.421-7.989 7.642c0 4.22 3.544 7.766 7.989 7.766a8.004 8.004 0 0 0 3.087-.61l.127-.099 5.862 5.999a.884.884 0 0 0 1.25 0l1.251-1.25a.884.884 0 0 0 0-1.251l-5.652-5.461z"/>
  </defs>
  <g transform="translate(-1053 -18)">
    <use fill="#f51009" xlink:href="#a"/>
  </g>
</svg>
