<svg xmlns="http://www.w3.org/2000/svg" xmlns:xlink="http://www.w3.org/1999/xlink" width="18" height="22"><defs><path id="a" d="M838.593 35.542v1.43h-17.37v-1.43c4.236-1.366 1.907-9.095 5.961-11.422.56-.32.905-.917.904-1.562v-.003a1.82 1.82 0 0 1 3.641 0v.003a1.8 1.8 0 0 0 .904 1.562c4.054 2.327 1.724 10.056 5.96 11.422zm-9.423-12.987a.74.74 0 1 0 1.478-.001.74.74 0 0 0-1.478 0zm3.247 16.452c0 1.372-1.112 2.327-2.484 2.327-1.371 0-2.483-.955-2.483-2.327z"/></defs><g transform="translate(-821 -20)"><use fill="#646d81" xlink:href="#a"/><use fill="#f51009" xlink:href="#a"/></g></svg>